<?xml version="1.0" encoding="UTF-8"?>
<svg id="Layer_2" data-name="Layer 2" xmlns="http://www.w3.org/2000/svg" viewBox="0 0 200.08 47.66">
  <defs>
    <style>
      .cls-1 {
        fill: #fff;
      }
    </style>
  </defs>
  <g id="Layer_1-2" data-name="Layer 1">
    <g>
      <g>
        <g>
          <g>
            <path class="cls-1" d="m23.11,16.7c.02,1.21-1.88,1.21-1.86,0-.02-1.21,1.88-1.21,1.86,0h0Z"/>
            <path class="cls-1" d="m23.11,32.61c.02,1.21-1.88,1.21-1.86,0-.02-1.21,1.88-1.21,1.86,0h0Z"/>
            <path class="cls-1" d="m20.04,16.82c.48,1.11-1.27,1.83-1.72.71-.48-1.11,1.27-1.83,1.72-.71h0Z"/>
            <path class="cls-1" d="m26.12,31.52c.48,1.11-1.27,1.83-1.72.71-.48-1.11,1.27-1.83,1.72-.71h0Z"/>
            <path class="cls-1" d="m17.16,18.24c.87.84-.48,2.18-1.32,1.32-.87-.84.48-2.18,1.32-1.32h0Z"/>
            <path class="cls-1" d="m28.4,29.49c.87.84-.48,2.18-1.32,1.32-.87-.84.48-2.18,1.32-1.32h0Z"/>
            <path class="cls-1" d="m15.13,20.62c1.12.44.4,2.2-.71,1.72-1.12-.44-.4-2.2.71-1.72h0Z"/>
            <path class="cls-1" d="m29.82,26.71c1.12.44.4,2.2-.71,1.72-1.12-.44-.4-2.2.71-1.72h0Z"/>
            <path class="cls-1" d="m14.27,23.59c1.21-.02,1.21,1.88,0,1.86-1.21.02-1.21-1.88,0-1.86h0Z"/>
            <path class="cls-1" d="m30.17,23.59c1.21-.02,1.21,1.88,0,1.86-1.21.02-1.21-1.88,0-1.86h0Z"/>
            <path class="cls-1" d="m14.42,26.71c1.11-.48,1.83,1.27.71,1.72-1.11.48-1.83-1.27-.71-1.72h0Z"/>
            <path class="cls-1" d="m29.11,20.62c1.11-.48,1.83,1.27.71,1.72-1.11.48-1.83-1.27-.71-1.72h0Z"/>
            <path class="cls-1" d="m15.94,29.49c.84-.87,2.18.48,1.31,1.32-.84.87-2.18-.48-1.31-1.32h0Z"/>
            <path class="cls-1" d="m27.19,18.24c.84-.87,2.18.48,1.31,1.32-.84.87-2.18-.48-1.31-1.32h0Z"/>
            <path class="cls-1" d="m18.22,31.52c.44-1.12,2.2-.4,1.72.71-.44,1.12-2.2.4-1.72-.71h0Z"/>
            <path class="cls-1" d="m24.31,16.82c.44-1.12,2.2-.4,1.72.71-.44,1.12-2.2.4-1.72-.71h0Z"/>
          </g>
          <g>
            <path class="cls-1" d="m24.98,14.71c-.14.72-1.27.49-1.11-.23.14-.72,1.27-.49,1.11.23h0Z"/>
            <path class="cls-1" d="m20.86,34.54c-.14.72-1.27.49-1.11-.23.14-.72,1.27-.49,1.11.23h0Z"/>
            <path class="cls-1" d="m21.12,14.31c.15.72-.99.94-1.11.21-.15-.72.99-.94,1.11-.21h0Z"/>
            <path class="cls-1" d="m24.9,34.21c.15.72-.99.94-1.11.21-.15-.72.99-.94,1.11-.21h0Z"/>
            <path class="cls-1" d="m17.25,15.56c.41.61-.55,1.24-.95.62-.41-.61.55-1.24.95-.62h0Z"/>
            <path class="cls-1" d="m28.35,32.5c.41.61-.55,1.24-.95.62-.41-.61.55-1.24.95-.62h0Z"/>
            <path class="cls-1" d="m14.28,18.17c.61.4-.04,1.36-.64.94-.61-.4.04-1.36.64-.94h0Z"/>
            <path class="cls-1" d="m31.01,29.57c.61.4-.04,1.36-.64.94-.61-.4.04-1.36.64-.94h0Z"/>
            <path class="cls-1" d="m12.65,21.75c.72.14.49,1.27-.23,1.11-.72-.14-.49-1.27.23-1.11h0Z"/>
            <path class="cls-1" d="m32.48,25.87c.72.14.49,1.27-.23,1.11-.72-.14-.49-1.27.23-1.11h0Z"/>
            <path class="cls-1" d="m12.27,25.67c.72-.15.94.99.21,1.11-.72.15-.94-.99-.21-1.11h0Z"/>
            <path class="cls-1" d="m32.17,21.89c.72-.15.94.99.21,1.11-.72.15-.94-.99-.21-1.11h0Z"/>
            <path class="cls-1" d="m13.67,29.45c.61-.41,1.24.55.62.95-.61.41-1.24-.55-.62-.95h0Z"/>
            <path class="cls-1" d="m30.6,18.34c.61-.41,1.24.55.62.95-.61.41-1.24-.55-.62-.95h0Z"/>
            <path class="cls-1" d="m16.16,32.39c.4-.61,1.36.04.94.64-.4.61-1.36-.04-.94-.64h0Z"/>
            <path class="cls-1" d="m27.56,15.65c.4-.61,1.36.04.94.64-.4.61-1.36-.04-.94-.64h0Z"/>
          </g>
          <g>
            <path class="cls-1" d="m27.89,13.32c-.22.49-.98.14-.75-.34.22-.49.98-.14.75.34h0Z"/>
            <path class="cls-1" d="m17.62,35.69c-.22.49-.98.14-.75-.34.22-.49.98-.14.75.34h0Z"/>
            <path class="cls-1" d="m23.4,11.9c-.01.53-.85.5-.82-.03.01-.53.85-.5.82.03h0Z"/>
            <path class="cls-1" d="m22.48,36.5c-.01.53-.85.5-.82-.03.01-.53.85-.5.82.03h0Z"/>
            <path class="cls-1" d="m18.49,12.43c.19.5-.59.79-.77.29-.19-.5.59-.79.77-.29h0Z"/>
            <path class="cls-1" d="m27.05,35.52c.19.5-.59.79-.77.29-.19-.5.59-.79.77-.29h0Z"/>
            <path class="cls-1" d="m14.32,14.81c.37.39-.25.96-.6.56-.37-.39.25-.96.6-.56h0Z"/>
            <path class="cls-1" d="m31.06,32.87c.37.39-.25.96-.6.56-.37-.39.25-.96.6-.56h0Z"/>
            <path class="cls-1" d="m11.51,18.67c.49.22.14.98-.34.75-.49-.22-.14-.98.34-.75h0Z"/>
            <path class="cls-1" d="m33.88,28.94c.49.22.14.98-.34.75-.49-.22-.14-.98.34-.75h0Z"/>
            <path class="cls-1" d="m10.1,23.25c.53.01.5.85-.03.82-.53-.01-.5-.85.03-.82h0Z"/>
            <path class="cls-1" d="m34.7,24.17c.53.01.5.85-.03.82-.53-.01-.5-.85.03-.82h0Z"/>
            <path class="cls-1" d="m10.84,28.08c.5-.19.79.6.29.77-.5.19-.79-.6-.29-.77h0Z"/>
            <path class="cls-1" d="m33.92,19.52c.5-.19.79.6.29.77-.5.19-.79-.6-.29-.77h0Z"/>
            <path class="cls-1" d="m13.08,32.19c.39-.37.96.25.56.6-.39.37-.96-.25-.56-.6h0Z"/>
            <path class="cls-1" d="m31.13,15.45c.39-.37.96.25.56.6-.39.37-.96-.25-.56-.6h0Z"/>
            <path class="cls-1" d="m30.74,12.85c-.22.32-.72-.03-.49-.34.22-.32.72.03.49.34h0Z"/>
            <path class="cls-1" d="m14.52,36.29c-.22.32-.72-.03-.49-.34.22-.32.72.03.49.34h0Z"/>
            <path class="cls-1" d="m25.88,10.39c-.08.38-.68.25-.59-.13.08-.38.68-.25.59.13h0Z"/>
            <path class="cls-1" d="m19.86,38.25c-.08.38-.68.25-.59-.13.08-.38.68-.25.59.13h0Z"/>
            <path class="cls-1" d="m20.18,10.08c.08.38-.53.49-.59.11-.08-.38.53-.49.59-.11h0Z"/>
            <path class="cls-1" d="m25.28,38.12c.08.38-.53.49-.59.11-.08-.38.53-.49.59-.11h0Z"/>
            <path class="cls-1" d="m14.96,12.02c.22.32-.3.66-.51.33-.22-.32.3-.66.51-.33h0Z"/>
            <path class="cls-1" d="m30.4,35.97c.22.32-.3.66-.51.33-.22-.32.3-.66.51-.33h0Z"/>
            <path class="cls-1" d="m11.03,15.9c.32.22-.02.72-.34.49-.32-.22.03-.72.34-.49h0Z"/>
            <path class="cls-1" d="m34.46,32.12c.32.22-.02.72-.34.49-.32-.22.03-.72.34-.49h0Z"/>
            <path class="cls-1" d="m8.57,20.85c.38.08.25.68-.13.59-.38-.08-.25-.68.13-.59h0Z"/>
            <path class="cls-1" d="m36.42,26.87c.38.08.25.68-.13.59-.38-.08-.25-.68.13-.59h0Z"/>
            <path class="cls-1" d="m8.51,26.51c.38-.08.49.53.11.59-.38.08-.49-.53-.11-.59h0Z"/>
            <path class="cls-1" d="m36.54,21.41c.38-.08.49.53.11.59-.38.08-.49-.53-.11-.59h0Z"/>
            <path class="cls-1" d="m10.29,31.63c.32-.22.66.3.33.51-.32.22-.66-.3-.33-.51h0Z"/>
            <path class="cls-1" d="m34.24,16.18c.32-.22.66.3.33.51-.32.22-.66-.3-.33-.51h0Z"/>
          </g>
          <g>
            <path class="cls-1" d="m24.86,23.46h-.95v1.32h.95c.53,0,.72-.28.72-.66s-.19-.66-.72-.66Z"/>
            <path class="cls-1" d="m27.45,23.18c-.08-.32-.18-.63-.31-.91.74-.98.32-2.81-1.29-2.79-.46,0-.82.15-1.09.38-.29-.14-.59-.25-.9-.34-.05-2.09-3.32-2.09-3.37,0-.39.11-.76.26-1.11.45-.26-.22-.61-.36-1.06-.35-1.66-.03-2.06,1.95-1.2,2.89-.07.19-.14.38-.19.58-.76.1-1.44.64-1.42,1.62-.02,1,.7,1.54,1.48,1.63.09.3.2.57.34.83-.74.98-.32,2.81,1.29,2.79.53,0,.93-.19,1.21-.49.22.1.45.18.68.25.05,2.09,3.32,2.08,3.37,0,.19-.05.37-.12.56-.19.27.27.65.45,1.15.44,1.53.02,1.99-1.64,1.39-2.64.15-.27.28-.55.38-.86.86,0,1.72-.54,1.7-1.64.02-1.05-.77-1.59-1.59-1.64Zm-4.74,3.32h-.55v-2.32c0-.54-.3-.79-.71-.79s-.71.26-.71.79v2.32h-.56v-2.32c0-.53-.3-.79-.71-.79s-.71.25-.71.79v2.32h-.56v-2.32c0-.88.53-1.31,1.22-1.31.47,0,.83.21,1.03.59.2-.39.56-.59,1.03-.59.69,0,1.22.42,1.22,1.31v2.32Zm2.14-1.21h-.94v1.21h-.55v-3.56h1.49c.9,0,1.29.5,1.29,1.17s-.4,1.18-1.29,1.18Z"/>
          </g>
        </g>
        <path class="cls-1" d="m22.48,45.01c-5.94,0-10.53-4.59-14.23-8.29C4.56,33.02,0,28.46,0,22.48s4.59-10.53,8.29-14.19C11.99,4.63,16.54,0,22.48,0s10.53,4.59,14.23,8.29c3.7,3.7,8.29,8.29,8.29,14.23s-4.59,10.5-8.29,14.19c-3.7,3.7-8.25,8.29-14.23,8.29h0ZM22.48.49c-5.75,0-10.04,4.33-13.85,8.14C4.82,12.44.49,16.77.49,22.48s4.33,10.08,8.14,13.89c3.81,3.81,8.14,8.14,13.85,8.14s10.04-4.33,13.85-8.14,8.14-8.14,8.14-13.86-4.29-10.08-8.1-13.89S28.23.49,22.48.49h0Z"/>
        <path class="cls-1" d="m22.48,47.66c-5.94,0-10.53-4.59-14.23-8.29C4.56,35.67,0,31.12,0,25.14s4.59-10.53,8.29-14.19c3.7-3.66,8.25-8.29,14.19-8.29s10.53,4.59,14.23,8.29c3.7,3.7,8.29,8.29,8.29,14.23s-4.59,10.5-8.29,14.19c-3.7,3.7-8.25,8.29-14.23,8.29h0Zm0-44.52c-5.75,0-10.04,4.33-13.85,8.14C4.82,15.09.49,19.43.49,25.14s4.33,10.08,8.14,13.89c3.81,3.81,8.14,8.14,13.85,8.14s10.04-4.33,13.85-8.14,8.14-8.14,8.14-13.86-4.29-10.08-8.1-13.89S28.23,3.14,22.48,3.14h0Z"/>
      </g>
      <path class="cls-1" d="m70.83,17.23h10.88v2.13h-8.57v4.07h7.26v2.13h-7.26v4.34h8.57v2.13h-10.88v-14.8Z"/>
      <path class="cls-1" d="m99.74,17.23h2.31v14.8h-2.31v-14.8Z"/>
      <path class="cls-1" d="m120.33,17.23h6.2c3.73,0,5.38,2.06,5.38,4.86s-1.65,4.89-5.38,4.89h-3.89v5.05h-2.31v-14.8Zm6.24,7.62c2.22,0,3.01-1.18,3.01-2.76s-.79-2.74-3.01-2.74h-3.94v5.5h3.94Z"/>
      <path class="cls-1" d="m149.06,24.63c0-4.43,3.26-7.69,7.87-7.69s7.87,3.26,7.87,7.69-3.26,7.69-7.87,7.69-7.87-3.26-7.87-7.69Zm13.42,0c0-3.21-2.26-5.57-5.54-5.57s-5.54,2.35-5.54,5.57,2.26,5.57,5.54,5.57,5.54-2.35,5.54-5.57Z"/>
      <path class="cls-1" d="m63.07,16.94c-1.95,0-3.46.86-4.28,2.47-.81-1.61-2.33-2.47-4.28-2.47-2.85,0-5.07,1.76-5.07,5.43v9.66h2.31v-9.66c0-2.26,1.27-3.3,2.94-3.3s2.94,1.09,2.94,3.3v7.05c.64-.52,1.68-.51,2.31.02v-7.07c0-2.22,1.24-3.3,2.94-3.3s2.94,1.04,2.94,3.3v9.66h2.31v-9.66c0-3.67-2.22-5.43-5.07-5.43Z"/>
      <path class="cls-1" d="m89.54,17.23h-5.27v12.39c.64-.52,1.68-.51,2.31.02v-10.29h2.96c3.78,0,5.54,2.08,5.54,5.27s-1.76,5.27-5.54,5.27h-2.74c.18.25.3.58.29.98,0,.5-.17.87-.43,1.14h2.88c5.16,0,7.87-2.96,7.87-7.4s-2.71-7.4-7.87-7.4Z"/>
      <path class="cls-1" d="m115.33,29.69c.62-.54,1.67-.55,2.31-.03v-6.34c0-3.91-2.29-6.38-6.47-6.38s-6.4,2.47-6.4,6.38v8.71h2.24v-4.68h8.33v2.34Zm-8.33-4.47v-1.9c0-2.67,1.4-4.25,4.16-4.25s4.16,1.58,4.16,4.25v1.9h-8.33Z"/>
      <g>
        <path class="cls-1" d="m146.78,19.48v-2.25h-2.31v2.24c.63-.53,1.68-.53,2.31,0Z"/>
        <path class="cls-1" d="m144.47,21.97v1.48h-8.26v-6.22h-2.31v14.8h2.31v-6.45h8.26v6.45h2.31v-10.06c-.63.53-1.67.53-2.31,0Z"/>
      </g>
      <path class="cls-1" d="m173,16.94c-4,0-6.24,2.38-6.24,6.13v6.61c.62-.55,1.66-.57,2.31-.06v-6.55c0-2.49,1.36-4,3.94-4s3.96,1.52,3.96,4v8.96h2.31v-8.96c0-3.76-2.24-6.13-6.27-6.13Z"/>
      <path class="cls-1" d="m182,19.33v12.69h2.31v-12.7c-.63.53-1.68.53-2.31,0Z"/>
      <g>
        <path class="cls-1" d="m193.04,22.8l-3.73-5.56h-2.76l4.96,7.06c.05-.94.77-1.44,1.53-1.49Z"/>
        <path class="cls-1" d="m194.87,24.27l4.99-7.04h-2.69l-3.76,5.57c.73.08,1.4.57,1.46,1.47Z"/>
        <path class="cls-1" d="m191.52,24.65l-5.22,7.38h2.69l4.01-5.97c-.73-.07-1.4-.54-1.48-1.41Z"/>
        <path class="cls-1" d="m194.86,24.63c-.08.91-.79,1.39-1.55,1.44l4.01,5.96h2.76l-5.22-7.4Z"/>
      </g>
      <path class="cls-1" d="m57.65,30.93c-.02,1.51,2.35,1.51,2.33,0,.02-1.51-2.35-1.51-2.33,0Z"/>
      <path class="cls-1" d="m84.25,30.92c-.02,1.51,2.35,1.51,2.33,0,.02-1.51-2.35-1.51-2.33,0Z"/>
      <path class="cls-1" d="m115.33,30.92c-.02,1.51,2.35,1.51,2.33,0,.02-1.51-2.35-1.51-2.33,0Z"/>
      <path class="cls-1" d="m144.46,20.7c-.02,1.51,2.35,1.51,2.33,0,.02-1.51-2.35-1.51-2.33,0Z"/>
      <path class="cls-1" d="m166.74,30.92c-.02,1.51,2.35,1.51,2.33,0,.02-1.51-2.35-1.51-2.33,0Z"/>
      <path class="cls-1" d="m181.99,18.06c-.02,1.51,2.35,1.51,2.33,0,.02-1.51-2.35-1.51-2.33,0Z"/>
      <path class="cls-1" d="m192.04,24.38c-.02,1.51,2.35,1.51,2.33,0,.02-1.51-2.35-1.51-2.33,0Z"/>
    </g>
  </g>
</svg>