<svg xmlns="http://www.w3.org/2000/svg" width="96.4707" height="96.2887" viewBox="0 0 96.4707 96.2887">
  <g>
    <g>
      <path d="M49.3469,35.1759a1.6908,1.6908,0,0,1-3.38,0,1.6908,1.6908,0,0,1,3.38,0Z" style="fill: #0074aa"/>
      <path d="M49.3469,64.0916a1.6908,1.6908,0,0,1-3.38,0,1.6908,1.6908,0,0,1,3.38,0Z" style="fill: #0074aa"/>
      <path d="M43.7662,35.4a1.6908,1.6908,0,0,1-3.123,1.2939A1.6908,1.6908,0,0,1,43.7662,35.4Z" style="fill: #0074aa"/>
      <path d="M54.8277,62.1147a1.6908,1.6908,0,0,1-3.123,1.2939,1.6908,1.6908,0,0,1,3.123-1.2939Z" style="fill: #0074aa"/>
      <path d="M38.5321,37.9857c1.5743,1.5258-.8642,3.9665-2.39,2.391-1.5742-1.5258.8643-3.9664,2.39-2.391Z" style="fill: #0074aa"/>
      <path d="M58.9711,58.4321c1.5743,1.5259-.8643,3.9665-2.39,2.391-1.5742-1.5257.8643-3.9663,2.39-2.391Z" style="fill: #0074aa"/>
      <path d="M34.8508,42.31a1.6913,1.6913,0,0,1-1.2937,3.124,1.6913,1.6913,0,0,1,1.2937-3.124Z" style="fill: #0074aa"/>
      <path d="M61.5556,53.3752a1.6913,1.6913,0,0,1-1.2937,3.124,1.6913,1.6913,0,0,1,1.2937-3.124Z" style="fill: #0074aa"/>
      <path d="M33.2829,47.7137a1.6914,1.6914,0,0,1,0,3.3815,1.6914,1.6914,0,0,1,0-3.3815Z" style="fill: #0074aa"/>
      <path d="M62.188,47.7137a1.6914,1.6914,0,0,1,0,3.3815,1.6914,1.6914,0,0,1,0-3.3815Z" style="fill: #0074aa"/>
      <path d="M33.5572,53.3752a1.6913,1.6913,0,0,1,1.2935,3.1242,1.6913,1.6913,0,0,1-1.2935-3.1242Z" style="fill: #0074aa"/>
      <path d="M60.2621,42.31a1.6913,1.6913,0,0,1,1.2934,3.1242A1.6913,1.6913,0,0,1,60.2621,42.31Z" style="fill: #0074aa"/>
      <path d="M36.3209,58.4322c1.5262-1.5751,3.9648.8654,2.39,2.3912-1.5261,1.575-3.9647-.8656-2.39-2.3912Z" style="fill: #0074aa"/>
      <path d="M56.76,37.9857c1.5262-1.5751,3.9648.8655,2.39,2.3912-1.5261,1.575-3.9647-.8655-2.39-2.3912Z" style="fill: #0074aa"/>
      <path d="M40.4642,62.1147a1.6909,1.6909,0,0,1,3.1229,1.2942,1.6909,1.6909,0,0,1-3.1229-1.2942Z" style="fill: #0074aa"/>
      <path d="M51.5257,35.4a1.6909,1.6909,0,0,1,3.1229,1.2942A1.6909,1.6909,0,0,1,51.5257,35.4Z" style="fill: #0074aa"/>
    </g>
    <g>
      <path d="M52.7467,31.5659a1.03,1.03,0,0,1-2.0156-.4192,1.03,1.03,0,0,1,2.0156.4192Z" style="fill: #f4ce53"/>
      <path d="M45.2564,67.6138a1.03,1.03,0,0,1-2.0156-.4192,1.03,1.03,0,0,1,2.0156.4192Z" style="fill: #f4ce53"/>
      <path d="M45.7276,30.837a1.03,1.03,0,0,1-2.0225.3843,1.03,1.03,0,0,1,2.0225-.3843Z" style="fill: #f4ce53"/>
      <path d="M52.5974,67.0084a1.03,1.03,0,0,1-2.0225.3843,1.03,1.03,0,0,1,2.0225-.3843Z" style="fill: #f4ce53"/>
      <path d="M38.6968,33.11a1.03,1.03,0,0,1-1.7215,1.1294A1.03,1.03,0,0,1,38.6968,33.11Z" style="fill: #f4ce53"/>
      <path d="M58.8808,63.8978a1.03,1.03,0,0,1-1.7215,1.1293,1.03,1.03,0,0,1,1.7215-1.1293Z" style="fill: #f4ce53"/>
      <path d="M33.2946,37.8585a1.03,1.03,0,0,1-1.1585,1.7024,1.03,1.03,0,0,1,1.1585-1.7024Z" style="fill: #f4ce53"/>
      <path d="M63.72,58.576a1.03,1.03,0,0,1-1.1585,1.7024A1.03,1.03,0,0,1,63.72,58.576Z" style="fill: #f4ce53"/>
      <path d="M30.3434,44.36a1.03,1.03,0,0,1-.4191,2.0163,1.03,1.03,0,0,1,.4191-2.0163Z" style="fill: #f4ce53"/>
      <path d="M66.3781,51.8532a1.03,1.03,0,0,1-.419,2.0163,1.03,1.03,0,0,1,.419-2.0163Z" style="fill: #f4ce53"/>
      <path d="M29.6568,51.493a1.03,1.03,0,0,1,.3842,2.0232,1.03,1.03,0,0,1-.3842-2.0232Z" style="fill: #f4ce53"/>
      <path d="M65.815,44.6207a1.03,1.03,0,0,1,.3842,2.0232,1.03,1.03,0,0,1-.3842-2.0232Z" style="fill: #f4ce53"/>
      <path d="M32.1984,58.35a1.03,1.03,0,0,1,1.1289,1.7222A1.03,1.03,0,0,1,32.1984,58.35Z" style="fill: #f4ce53"/>
      <path d="M62.9752,38.1581A1.03,1.03,0,0,1,64.1041,39.88a1.03,1.03,0,0,1-1.1289-1.7222Z" style="fill: #f4ce53"/>
      <path d="M36.7221,63.7073a1.03,1.03,0,0,1,1.7018,1.1589,1.03,1.03,0,0,1-1.7018-1.1589Z" style="fill: #f4ce53"/>
      <path d="M57.4322,33.2708A1.03,1.03,0,0,1,59.1339,34.43a1.03,1.03,0,0,1-1.7017-1.1589Z" style="fill: #f4ce53"/>
    </g>
    <g>
      <path d="M58.042,29.0323a.75.75,0,0,1-1.3617-.6252.7495.7495,0,0,1,1.3617.6252Z" style="fill: #001e48"/>
      <path d="M39.3823,69.7065a.75.75,0,0,1-1.3617-.6252.7495.7495,0,0,1,1.3617.6252Z" style="fill: #001e48"/>
      <path d="M49.8784,26.4525a.7494.7494,0,0,1-1.4972-.0563.7494.7494,0,0,1,1.4972.0563Z" style="fill: #001e48"/>
      <path d="M48.1988,71.174a.7494.7494,0,0,1-1.4972-.0563.7494.7494,0,0,1,1.4972.0563Z" style="fill: #001e48"/>
      <path d="M40.9624,27.4288a.7494.7494,0,0,1-1.4047.5211.7494.7494,0,0,1,1.4047-.5211Z" style="fill: #001e48"/>
      <path d="M56.5186,69.3891a.7494.7494,0,0,1-1.4048.5211.7494.7494,0,0,1,1.4048-.5211Z" style="fill: #001e48"/>
      <path d="M33.3755,31.7544a.75.75,0,0,1-1.0984,1.0192.7495.7495,0,0,1,1.0984-1.0192Z" style="fill: #001e48"/>
      <path d="M63.7992,64.5654a.75.75,0,0,1-1.0985,1.0192.75.75,0,0,1,1.0985-1.0192Z" style="fill: #001e48"/>
      <path d="M28.2727,38.7708a.75.75,0,0,1-.6249,1.3621.75.75,0,0,1,.6249-1.3621Z" style="fill: #001e48"/>
      <path d="M68.9322,57.4373a.75.75,0,0,1-.625,1.3622.75.75,0,0,1,.625-1.3622Z" style="fill: #001e48"/>
      <path d="M25.7137,47.0805a.75.75,0,0,1-.0563,1.4978.75.75,0,0,1,.0563-1.4978Z" style="fill: #001e48"/>
      <path d="M70.4189,48.7608a.75.75,0,0,1-.0564,1.4977.75.75,0,0,1,.0564-1.4977Z" style="fill: #001e48"/>
      <path d="M27.057,55.8634a.75.75,0,0,1,.5209,1.4053.75.75,0,0,1-.5209-1.4053Z" style="fill: #001e48"/>
      <path d="M69.002,40.3016a.75.75,0,0,1,.5209,1.4053.75.75,0,0,1-.5209-1.4053Z" style="fill: #001e48"/>
      <path d="M31.1292,63.3375a.75.75,0,0,1,1.0188,1.0988.75.75,0,0,1-1.0188-1.0988Z" style="fill: #001e48"/>
      <path d="M63.9282,32.9027a.75.75,0,0,1,1.0188,1.0989.75.75,0,0,1-1.0188-1.0989Z" style="fill: #001e48"/>
      <path d="M63.2166,28.1868a.5468.5468,0,0,1-.8988-.6224.5468.5468,0,0,1,.8988.6224Z" style="fill: #001e48"/>
      <path d="M33.7442,70.7864a.5468.5468,0,0,1-.8988-.6223.5468.5468,0,0,1,.8988.6223Z" style="fill: #001e48"/>
      <path d="M54.3813,23.7136a.5468.5468,0,0,1-1.0685-.2309.5468.5468,0,0,1,1.0685.2309Z" style="fill: #001e48"/>
      <path d="M43.4485,74.3532a.5467.5467,0,0,1-1.0684-.2309.5467.5467,0,0,1,1.0684.2309Z" style="fill: #001e48"/>
      <path d="M44.0189,23.1523a.5467.5467,0,0,1-1.0754.1957.5467.5467,0,0,1,1.0754-.1957Z" style="fill: #001e48"/>
      <path d="M53.29,74.1226a.5468.5468,0,0,1-1.0755.1957.5468.5468,0,0,1,1.0755-.1957Z" style="fill: #001e48"/>
      <path d="M34.5443,26.6685a.5468.5468,0,0,1-.9188.5925.5468.5468,0,0,1,.9188-.5925Z" style="fill: #001e48"/>
      <path d="M62.6082,70.21a.5468.5468,0,0,1-.9187.5925.5468.5468,0,0,1,.9187-.5925Z" style="fill: #001e48"/>
      <path d="M27.4,33.7268a.5469.5469,0,0,1-.6221.8991.5469.5469,0,0,1,.6221-.8991Z" style="fill: #001e48"/>
      <path d="M69.9838,63.21a.5469.5469,0,0,1-.6221.8991.5469.5469,0,0,1,.6221-.8991Z" style="fill: #001e48"/>
      <path d="M22.9217,42.7326a.5469.5469,0,0,1-.2308,1.0688.5469.5469,0,0,1,.2308-1.0688Z" style="fill: #001e48"/>
      <path d="M73.5429,53.6693a.5469.5469,0,0,1-.2308,1.0688.5469.5469,0,0,1,.2308-1.0688Z" style="fill: #001e48"/>
      <path d="M22.807,53.0174a.547.547,0,0,1,.1956,1.0759.547.547,0,0,1-.1956-1.0759Z" style="fill: #001e48"/>
      <path d="M73.7586,43.7427a.5469.5469,0,0,1,.1957,1.0758.5469.5469,0,0,1-.1957-1.0758Z" style="fill: #001e48"/>
      <path d="M26.0581,62.313a.5469.5469,0,0,1,.5923.919.5469.5469,0,0,1-.5923-.919Z" style="fill: #001e48"/>
      <path d="M69.5833,34.2387a.5469.5469,0,0,1,.5923.9191.5469.5469,0,0,1-.5923-.9191Z" style="fill: #001e48"/>
    </g>
    <g>
      <path d="M57.2357,46.9667a9.5271,9.5271,0,0,0-.5616-1.6676c1.3419-1.7766.5671-5.1043-2.3443-5.0589a2.8218,2.8218,0,0,0-1.9751.693A10.2872,10.2872,0,0,0,50.718,40.31c-.09-3.7917-6.0326-3.7914-6.1225,0a10.1952,10.1952,0,0,0-2.0235.8213,2.8435,2.8435,0,0,0-1.9155-.6376c-3.0191-.0475-3.7465,3.5356-2.1923,5.2518a9.57,9.57,0,0,0-.3452,1.0662,2.9748,2.9748,0,0,0,.0962,5.91,9.1835,9.1835,0,0,0,.613,1.5123c-1.3562,1.7732-.5843,5.1184,2.3344,5.0729a2.7893,2.7893,0,0,0,2.1879-.8921,10.412,10.412,0,0,0,1.245.4426c.09,3.7919,6.0326,3.7917,6.1225,0a10.4328,10.4328,0,0,0,1.0157-.3507,2.7971,2.7971,0,0,0,2.0894.8c2.7758.0437,3.6129-2.9811,2.523-4.8034a9.0783,9.0783,0,0,0,.691-1.5719,2.8916,2.8916,0,0,0,3.0817-2.99A2.8586,2.8586,0,0,0,57.2357,46.9667Zm-8.609,6.0314H47.6184V48.7764c0-.9892-.5537-1.4443-1.2856-1.4443-.7412,0-1.2852.4746-1.2852,1.4443v4.2217H44.0388V48.7764c0-.97-.5434-1.4443-1.2851-1.4443-.7315,0-1.2852.4551-1.2852,1.4443v4.2217H40.46V48.7764a2.1219,2.1219,0,0,1,2.2149-2.373,1.9721,1.9721,0,0,1,1.8686,1.0771,1.9729,1.9729,0,0,1,1.8687-1.0771,2.1218,2.1218,0,0,1,2.2148,2.373Zm3.8887-2.2051H50.8147v2.2051H49.8064V46.5313h2.709c1.6318,0,2.3535.9,2.3535,2.126S54.1472,50.793,52.5154,50.793Z" style="fill: #6aacd8"/>
      <path d="M52.5354,47.461H50.8147v2.4023h1.7207c.9688,0,1.315-.5136,1.315-1.206C53.85,47.9747,53.5042,47.461,52.5354,47.461Z" style="fill: #6aacd8"/>
    </g>
    <path d="M48.2014,86.633c-10.79,0-19.1373-8.35-25.8557-15.0711S7.348,56.5588,7.348,45.6968,15.6951,26.5525,22.4136,19.9,37.4112,4.8285,48.2014,4.8285s19.1373,8.35,25.8557,15.071S89.1227,34.9706,89.1227,45.7647,80.7755,64.8411,74.0571,71.5619,59.06,86.633,48.2014,86.633Zm0-80.9219c-10.4509,0-18.2551,7.8749-25.1771,14.7994S8.23,35.31,8.23,45.6968s7.8721,18.33,14.7941,25.2542S37.8184,85.75,48.2014,85.75,66.4565,77.8755,73.3785,70.951,88.1726,56.1515,88.1726,45.7647s-7.8042-18.33-14.7262-25.2542S58.6523,5.7111,48.2014,5.7111Z" style="fill: #6aacd8"/>
    <path d="M48.2014,91.46c-10.79,0-19.1373-8.35-25.8557-15.071S7.348,61.386,7.348,50.524,15.6951,31.38,22.4136,24.7267,37.4112,9.6557,48.2014,9.6557s19.1373,8.35,25.8557,15.071,15.0656,15.071,15.0656,25.8652S80.7755,69.6682,74.0571,76.3891,59.06,91.46,48.2014,91.46Zm0-80.9219c-10.4509,0-18.2551,7.875-25.1771,14.8S8.23,40.1372,8.23,50.524s7.8721,18.33,14.7941,25.2541,14.7941,14.8,25.1771,14.8,18.2551-7.875,25.1771-14.8S88.1726,60.9786,88.1726,50.5919s-7.8042-18.33-14.7262-25.2542-14.7941-14.8-25.245-14.8Z" style="fill: #001e48"/>
  </g>
</svg>
