<?xml version="1.0" encoding="utf-8"?>
<!-- Generator: Adobe Illustrator 27.2.0, SVG Export Plug-In . SVG Version: 6.00 Build 0)  -->
<svg version="1.1" id="Layer_1" xmlns="http://www.w3.org/2000/svg" xmlns:xlink="http://www.w3.org/1999/xlink" x="0px" y="0px"
	 viewBox="0 0 96.5 96.3" style="enable-background:new 0 0 96.5 96.3;" xml:space="preserve">
<style type="text/css">
	.st0{fill:#FFFFFF;}
</style>
<g>
	<g>
		<g>
			<path class="st0" d="M49.3,35.2c0,2.2-3.4,2.2-3.4,0C45.9,33,49.4,33,49.3,35.2L49.3,35.2L49.3,35.2z"/>
			<path class="st0" d="M49.3,64.1c0,2.2-3.4,2.2-3.4,0C45.9,61.9,49.4,61.9,49.3,64.1L49.3,64.1L49.3,64.1z"/>
			<path class="st0" d="M43.8,35.4c0.9,2-2.3,3.3-3.1,1.3C39.8,34.7,43,33.4,43.8,35.4L43.8,35.4L43.8,35.4z"/>
			<path class="st0" d="M54.8,62.1c0.9,2-2.3,3.3-3.1,1.3C50.8,61.4,54,60.1,54.8,62.1L54.8,62.1L54.8,62.1z"/>
			<path class="st0" d="M38.5,38c1.6,1.5-0.9,4-2.4,2.4C34.6,38.9,37,36.4,38.5,38L38.5,38L38.5,38z"/>
			<path class="st0" d="M59,58.4c1.6,1.5-0.9,4-2.4,2.4C55,59.3,57.4,56.9,59,58.4L59,58.4L59,58.4z"/>
			<path class="st0" d="M34.9,42.3c2,0.8,0.7,4-1.3,3.1C31.5,44.6,32.8,41.4,34.9,42.3L34.9,42.3L34.9,42.3z"/>
			<path class="st0" d="M61.6,53.4c2,0.8,0.7,4-1.3,3.1C58.2,55.7,59.5,52.5,61.6,53.4L61.6,53.4z"/>
			<path class="st0" d="M33.3,47.7c2.2,0,2.2,3.4,0,3.4C31.1,51.1,31.1,47.7,33.3,47.7L33.3,47.7z"/>
			<path class="st0" d="M62.2,47.7c2.2,0,2.2,3.4,0,3.4C60,51.1,60,47.7,62.2,47.7L62.2,47.7z"/>
			<path class="st0" d="M33.6,53.4c2-0.9,3.3,2.3,1.3,3.1C32.8,57.4,31.5,54.2,33.6,53.4L33.6,53.4z"/>
			<path class="st0" d="M60.3,42.3c2-0.9,3.3,2.3,1.3,3.1C59.5,46.3,58.2,43.1,60.3,42.3L60.3,42.3z"/>
			<path class="st0" d="M36.3,58.4c1.5-1.6,4,0.9,2.4,2.4C37.2,62.4,34.7,60,36.3,58.4L36.3,58.4L36.3,58.4z"/>
			<path class="st0" d="M56.8,38c1.5-1.6,4,0.9,2.4,2.4C57.6,42,55.2,39.5,56.8,38L56.8,38L56.8,38z"/>
			<path class="st0" d="M40.5,62.1c0.8-2,4-0.7,3.1,1.3C42.8,65.4,39.6,64.1,40.5,62.1L40.5,62.1L40.5,62.1z"/>
			<path class="st0" d="M51.5,35.4c0.8-2,4-0.7,3.1,1.3C53.8,38.7,50.7,37.4,51.5,35.4L51.5,35.4L51.5,35.4z"/>
		</g>
		<g>
			<path class="st0" d="M52.7,31.6c-0.3,1.3-2.3,0.9-2-0.4C51,29.8,53,30.3,52.7,31.6L52.7,31.6L52.7,31.6z"/>
			<path class="st0" d="M45.3,67.6c-0.3,1.3-2.3,0.9-2-0.4C43.5,65.9,45.5,66.3,45.3,67.6L45.3,67.6L45.3,67.6z"/>
			<path class="st0" d="M45.7,30.8c0.3,1.3-1.8,1.7-2,0.4C43.4,29.9,45.5,29.5,45.7,30.8L45.7,30.8L45.7,30.8z"/>
			<path class="st0" d="M52.6,67c0.3,1.3-1.8,1.7-2,0.4C50.3,66.1,52.4,65.7,52.6,67L52.6,67L52.6,67z"/>
			<path class="st0" d="M38.7,33.1c0.7,1.1-1,2.3-1.7,1.1C36.2,33.1,38,32,38.7,33.1L38.7,33.1L38.7,33.1z"/>
			<path class="st0" d="M58.9,63.9c0.7,1.1-1,2.3-1.7,1.1C56.4,63.9,58.2,62.8,58.9,63.9L58.9,63.9L58.9,63.9z"/>
			<path class="st0" d="M33.3,37.9c1.1,0.7-0.1,2.5-1.2,1.7C31,38.8,32.2,37.1,33.3,37.9L33.3,37.9L33.3,37.9z"/>
			<path class="st0" d="M63.7,58.6c1.1,0.7-0.1,2.5-1.2,1.7C61.4,59.5,62.6,57.8,63.7,58.6L63.7,58.6L63.7,58.6z"/>
			<path class="st0" d="M30.3,44.4c1.3,0.3,0.9,2.3-0.4,2C28.6,46.1,29,44.1,30.3,44.4L30.3,44.4z"/>
			<path class="st0" d="M66.4,51.9c1.3,0.3,0.9,2.3-0.4,2C64.6,53.6,65.1,51.6,66.4,51.9L66.4,51.9z"/>
			<path class="st0" d="M29.7,51.5c1.3-0.3,1.7,1.8,0.4,2C28.7,53.8,28.3,51.7,29.7,51.5L29.7,51.5z"/>
			<path class="st0" d="M65.8,44.6c1.3-0.3,1.7,1.8,0.4,2C64.9,46.9,64.5,44.8,65.8,44.6L65.8,44.6z"/>
			<path class="st0" d="M32.2,58.3c1.1-0.7,2.3,1,1.1,1.7C32.2,60.8,31.1,59.1,32.2,58.3L32.2,58.3L32.2,58.3z"/>
			<path class="st0" d="M63,38.2c1.1-0.7,2.3,1,1.1,1.7C63,40.6,61.8,38.9,63,38.2L63,38.2L63,38.2z"/>
			<path class="st0" d="M36.7,63.7c0.7-1.1,2.5,0.1,1.7,1.2C37.7,66,36,64.8,36.7,63.7L36.7,63.7L36.7,63.7z"/>
			<path class="st0" d="M57.4,33.3c0.7-1.1,2.5,0.1,1.7,1.2C58.4,35.5,56.7,34.4,57.4,33.3L57.4,33.3L57.4,33.3z"/>
		</g>
		<g>
			<path class="st0" d="M58,29c-0.4,0.9-1.8,0.3-1.4-0.6C57.1,27.5,58.5,28.2,58,29L58,29L58,29z"/>
			<path class="st0" d="M39.4,69.7C39,70.6,37.6,70,38,69.1C38.4,68.2,39.8,68.8,39.4,69.7L39.4,69.7L39.4,69.7z"/>
			<path class="st0" d="M49.9,26.5c0,1-1.5,0.9-1.5-0.1C48.4,25.4,49.9,25.5,49.9,26.5L49.9,26.5L49.9,26.5z"/>
			<path class="st0" d="M48.2,71.2c0,1-1.5,0.9-1.5-0.1C46.7,70.1,48.3,70.2,48.2,71.2L48.2,71.2L48.2,71.2z"/>
			<path class="st0" d="M41,27.4c0.4,0.9-1.1,1.4-1.4,0.5C39.2,27,40.6,26.5,41,27.4L41,27.4L41,27.4z"/>
			<path class="st0" d="M56.5,69.4c0.4,0.9-1.1,1.4-1.4,0.5C54.8,69,56.2,68.5,56.5,69.4L56.5,69.4L56.5,69.4z"/>
			<path class="st0" d="M33.4,31.8c0.7,0.7-0.4,1.7-1.1,1C31.6,32.1,32.7,31,33.4,31.8L33.4,31.8L33.4,31.8z"/>
			<path class="st0" d="M63.8,64.6c0.7,0.7-0.4,1.7-1.1,1C62,64.9,63.1,63.8,63.8,64.6L63.8,64.6L63.8,64.6z"/>
			<path class="st0" d="M28.3,38.8c0.9,0.4,0.3,1.8-0.6,1.4C26.8,39.7,27.4,38.4,28.3,38.8L28.3,38.8z"/>
			<path class="st0" d="M68.9,57.4c0.9,0.4,0.3,1.8-0.6,1.4C67.4,58.4,68.1,57,68.9,57.4L68.9,57.4z"/>
			<path class="st0" d="M25.7,47.1c1,0,0.9,1.5-0.1,1.5C24.7,48.6,24.7,47,25.7,47.1L25.7,47.1z"/>
			<path class="st0" d="M70.4,48.8c1,0,0.9,1.5-0.1,1.5C69.4,50.2,69.4,48.7,70.4,48.8L70.4,48.8z"/>
			<path class="st0" d="M27.1,55.9c0.9-0.4,1.4,1.1,0.5,1.4C26.7,57.6,26.1,56.2,27.1,55.9L27.1,55.9z"/>
			<path class="st0" d="M69,40.3c0.9-0.4,1.4,1.1,0.5,1.4C68.6,42.1,68.1,40.6,69,40.3L69,40.3z"/>
			<path class="st0" d="M31.1,63.3c0.7-0.7,1.7,0.4,1,1.1C31.4,65.1,30.4,64,31.1,63.3L31.1,63.3L31.1,63.3z"/>
			<path class="st0" d="M63.9,32.9c0.7-0.7,1.7,0.4,1,1.1C64.2,34.7,63.2,33.6,63.9,32.9L63.9,32.9L63.9,32.9z"/>
			<path class="st0" d="M63.2,28.2c-0.4,0.6-1.3,0-0.9-0.6C62.7,27,63.6,27.6,63.2,28.2L63.2,28.2L63.2,28.2z"/>
			<path class="st0" d="M33.7,70.8c-0.4,0.6-1.3,0-0.9-0.6C33.2,69.6,34.2,70.2,33.7,70.8L33.7,70.8L33.7,70.8z"/>
			<path class="st0" d="M54.4,23.7c-0.1,0.7-1.2,0.5-1.1-0.2C53.5,22.8,54.5,23,54.4,23.7L54.4,23.7L54.4,23.7z"/>
			<path class="st0" d="M43.4,74.4c-0.1,0.7-1.2,0.5-1.1-0.2C42.5,73.4,43.6,73.7,43.4,74.4L43.4,74.4L43.4,74.4z"/>
			<path class="st0" d="M44,23.2c0.1,0.7-1,0.9-1.1,0.2C42.8,22.7,43.9,22.5,44,23.2L44,23.2L44,23.2z"/>
			<path class="st0" d="M53.3,74.1c0.1,0.7-1,0.9-1.1,0.2C52.1,73.6,53.2,73.4,53.3,74.1L53.3,74.1L53.3,74.1z"/>
			<path class="st0" d="M34.5,26.7c0.4,0.6-0.5,1.2-0.9,0.6C33.2,26.7,34.2,26.1,34.5,26.7L34.5,26.7L34.5,26.7z"/>
			<path class="st0" d="M62.6,70.2c0.4,0.6-0.5,1.2-0.9,0.6C61.3,70.2,62.2,69.6,62.6,70.2L62.6,70.2L62.6,70.2z"/>
			<path class="st0" d="M27.4,33.7c0.6,0.4,0,1.3-0.6,0.9C26.2,34.2,26.8,33.3,27.4,33.7L27.4,33.7L27.4,33.7z"/>
			<path class="st0" d="M70,63.2c0.6,0.4,0,1.3-0.6,0.9C68.8,63.7,69.4,62.8,70,63.2L70,63.2L70,63.2z"/>
			<path class="st0" d="M22.9,42.7c0.7,0.1,0.5,1.2-0.2,1.1C22,43.7,22.2,42.6,22.9,42.7L22.9,42.7z"/>
			<path class="st0" d="M73.5,53.7c0.7,0.1,0.5,1.2-0.2,1.1C72.6,54.6,72.9,53.5,73.5,53.7L73.5,53.7z"/>
			<path class="st0" d="M22.8,53c0.7-0.1,0.9,1,0.2,1.1C22.3,54.2,22.1,53.1,22.8,53L22.8,53z"/>
			<path class="st0" d="M73.8,43.7c0.7-0.1,0.9,1,0.2,1.1C73.3,45,73.1,43.9,73.8,43.7L73.8,43.7z"/>
			<path class="st0" d="M26.1,62.3c0.6-0.4,1.2,0.5,0.6,0.9C26.1,63.6,25.5,62.7,26.1,62.3L26.1,62.3L26.1,62.3z"/>
			<path class="st0" d="M69.6,34.2c0.6-0.4,1.2,0.5,0.6,0.9C69.6,35.6,69,34.6,69.6,34.2L69.6,34.2L69.6,34.2z"/>
		</g>
		<g>
			<path class="st0" d="M52.5,47.5h-1.7v2.4h1.7c1,0,1.3-0.5,1.3-1.2C53.9,48,53.5,47.5,52.5,47.5z"/>
			<path class="st0" d="M57.2,47c-0.1-0.6-0.3-1.1-0.6-1.7c1.4-1.8,0.6-5.1-2.3-5.1c-0.8,0-1.5,0.3-2,0.7c-0.5-0.3-1.1-0.5-1.6-0.6
				c-0.1-3.8-6-3.8-6.1,0c-0.7,0.2-1.4,0.5-2,0.8c-0.5-0.4-1.1-0.7-1.9-0.6c-3,0-3.7,3.5-2.2,5.3c-0.1,0.3-0.3,0.7-0.4,1.1
				c-1.4,0.2-2.6,1.2-2.6,3c0,1.8,1.3,2.8,2.7,3c0.2,0.5,0.4,1,0.6,1.5c-1.4,1.8-0.6,5.1,2.3,5.1c1,0,1.7-0.3,2.2-0.9
				c0.4,0.2,0.8,0.3,1.2,0.4c0.1,3.8,6,3.8,6.1,0c0.3-0.1,0.7-0.2,1-0.3c0.5,0.5,1.2,0.8,2.1,0.8c2.8,0,3.6-3,2.5-4.8
				c0.3-0.5,0.5-1,0.7-1.6c1.6,0,3.1-1,3.1-3C60.1,48,58.7,47,57.2,47z M48.6,53h-1v-4.2c0-1-0.6-1.4-1.3-1.4
				c-0.7,0-1.3,0.5-1.3,1.4V53h-1v-4.2c0-1-0.5-1.4-1.3-1.4c-0.7,0-1.3,0.5-1.3,1.4V53h-1v-4.2c0-1.6,1-2.4,2.2-2.4
				c0.9,0,1.5,0.4,1.9,1.1c0.4-0.7,1-1.1,1.9-1.1c1.2,0,2.2,0.8,2.2,2.4V53z M52.5,50.8h-1.7V53h-1v-6.5h2.7c1.6,0,2.4,0.9,2.4,2.1
				C54.9,49.9,54.1,50.8,52.5,50.8z"/>
		</g>
	</g>
	<path class="st0" d="M48.2,86.6c-10.8,0-19.1-8.4-25.9-15.1c-6.7-6.7-15-15-15-25.9s8.3-19.1,15.1-25.8s15-15.1,25.8-15.1
		s19.1,8.4,25.9,15.1c6.7,6.7,15.1,15.1,15.1,25.9s-8.3,19.1-15.1,25.8C67.3,78.3,59.1,86.6,48.2,86.6L48.2,86.6L48.2,86.6z
		 M48.2,5.7c-10.5,0-18.3,7.9-25.2,14.8C16.1,27.4,8.2,35.3,8.2,45.7S16.1,64,23,71s14.8,14.8,25.2,14.8S66.5,77.9,73.4,71
		c6.9-6.9,14.8-14.8,14.8-25.2s-7.8-18.3-14.7-25.3C66.5,13.6,58.7,5.7,48.2,5.7L48.2,5.7L48.2,5.7z"/>
	<path class="st0" d="M48.2,91.5c-10.8,0-19.1-8.4-25.9-15.1c-6.7-6.7-15-15-15-25.9s8.3-19.1,15.1-25.8s15-15.1,25.8-15.1
		S67.3,18,74.1,24.7c6.7,6.7,15.1,15.1,15.1,25.9s-8.3,19.1-15.1,25.8C67.3,83.1,59.1,91.5,48.2,91.5L48.2,91.5L48.2,91.5z
		 M48.2,10.5c-10.5,0-18.3,7.9-25.2,14.8C16.1,32.3,8.2,40.1,8.2,50.5S16.1,68.9,23,75.8s14.8,14.8,25.2,14.8s18.3-7.9,25.2-14.8
		c6.9-6.9,14.8-14.8,14.8-25.2s-7.8-18.3-14.7-25.3C66.5,18.4,58.7,10.5,48.2,10.5L48.2,10.5L48.2,10.5z"/>
</g>
</svg>
